# xmcd
#
# Track frame offsets: 
#        150
#        15541
#        31878
#        46592
#        63623
#        78195
#        91938
#        108835
#        125355
#        141889
#        162253
#        179713
#        192910
#
# Disc length: 2773 seconds
#
# Revision: 1
# Processed by: cddbd v1.5.2PL0 Copyright (c) Steve Scherf et al.
# Submitted via: ExactAudioCopy v0.99pb5
#
DISCID=a10ad30d
DTITLE=Temple-Song-Hearts - Temple-Song-Hearts XII
DYEAR=2008
DGENRE=New Age
TTITLE0=Bohoy kena bhoy
TTITLE1=Tomara charane
TTITLE2=Jukti tomar lagiya
TTITLE3=Pratiti dibase
TTITLE4=Dhara jadi tumi
TTITLE5=My soul shall always share
TTITLE6=Hiyakashe
TTITLE7=Dukko amar
TTITLE8=Andhakar
TTITLE9=Keno eto mor
TTITLE10=Basanar dwar
TTITLE11=Keno ami
TTITLE12=Gagane phutilo chand
EXTD=YEAR: 2008
EXTT0=
EXTT1=
EXTT2=
EXTT3=
EXTT4=
EXTT5=
EXTT6=
EXTT7=
EXTT8=
EXTT9=
EXTT10=
EXTT11=
EXTT12=
PLAYORDER=
